<svg xmlns="http://www.w3.org/2000/svg" viewBox="0 0 24 24" id="Add">
  <path d="M5.072 0A5.061 5.061 0 0 0 0 5.072v13.856A5.061 5.061 0 0 0 5.072 24h13.856A5.061 5.061 0 0 0 24 18.928V5.072A5.061 5.061 0 0 0 18.928 0H5.072zM12 5.5c3.596 0 6.5 2.904 6.5 6.5s-2.904 6.5-6.5 6.5a6.492 6.492 0 0 1-6.467-7.166A6.492 6.492 0 0 1 12 5.5zm-.008 2.494a.517.517 0 0 0-.492.506v3h-3a.523.523 0 0 0-.508.5.52.52 0 0 0 .508.5h3v3a.52.52 0 0 0 .5.508.52.52 0 0 0 .5-.508v-3h3a.523.523 0 0 0 .508-.5.52.52 0 0 0-.508-.5h-3v-3a.52.52 0 0 0-.508-.506z" fill="#34a853" class="color000000 svgShape"></path>
</svg>
